HIERARCHY
ROOT Hips
{
	OFFSET -0.001795 -0.223333 0.028219
	CHANNELS 6 Xposition Yposition Zposition Zrotation Yrotation Xrotation 
	JOINT LeftUpLeg
	{
		OFFSET 0.069520 -0.091406 -0.006815
		CHANNELS 3 Zrotation Yrotation Xrotation
		JOINT LeftLeg
		{
			OFFSET 0.034277 -0.375199 -0.004496
			CHANNELS 3 Zrotation Yrotation Xrotation
			JOINT LeftFoot
			{
				OFFSET -0.013596 -0.397961 -0.043693
				CHANNELS 3 Zrotation Yrotation Xrotation
				JOINT LeftToe
				{
					OFFSET 0.026358 -0.055791 0.119288
					CHANNELS 3 Zrotation Yrotation Xrotation
					End Site
					{
						OFFSET 0.000000 0.000000 0.000000
					}
				}
			}
		}
	}
	JOINT RightUpLeg
	{
		OFFSET -0.067670 -0.090522 -0.004320
		CHANNELS 3 Zrotation Yrotation Xrotation
		JOINT RightLeg
		{
			OFFSET -0.038290 -0.382569 -0.008850
			CHANNELS 3 Zrotation Yrotation Xrotation
			JOINT RightFoot
			{
				OFFSET 0.015774 -0.398415 -0.042312
				CHANNELS 3 Zrotation Yrotation Xrotation
				JOINT RightToe
				{
					OFFSET -0.025372 -0.048144 0.123348
					CHANNELS 3 Zrotation Yrotation Xrotation
					End Site
					{
						OFFSET 0.000000 0.000000 0.000000
					}
				}
			}
		}
	}
	JOINT Spine
	{
		OFFSET -0.002533 0.108963 -0.026696
		CHANNELS 3 Zrotation Yrotation Xrotation
		JOINT Spine1
		{
			OFFSET 0.005487 0.135180 0.001092
			CHANNELS 3 Zrotation Yrotation Xrotation
			JOINT Spine2
			{
				OFFSET 0.001457 0.052922 0.025425
				CHANNELS 3 Zrotation Yrotation Xrotation
				JOINT Neck
				{
					OFFSET -0.002778 0.213870 -0.042857
					CHANNELS 3 Zrotation Yrotation Xrotation
					JOINT Head
					{
						OFFSET 0.005152 0.064970 0.051349
						CHANNELS 3 Zrotation Yrotation Xrotation
						End Site
						{
							OFFSET 0.000000 0.000000 0.000000
						}
					}
				}
				JOINT LeftShoulder
				{
					OFFSET 0.078845 0.121749 -0.034090
					CHANNELS 3 Zrotation Yrotation Xrotation
					JOINT LeftArm
					{
						OFFSET 0.090977 0.030469 -0.008868
						CHANNELS 3 Zrotation Yrotation Xrotation
						JOINT LeftForeArm
						{
							OFFSET 0.259612 -0.012772 -0.027456
							CHANNELS 3 Zrotation Yrotation Xrotation
							JOINT LeftHand
							{
								OFFSET 0.249234 0.008986 -0.001171
								CHANNELS 3 Zrotation Yrotation Xrotation
								End Site
								{
									OFFSET 0.000000 0.000000 0.000000
								}
							}
						}
					}
				}
				JOINT RightShoulder
				{
					OFFSET -0.081759 0.118833 -0.038615
					CHANNELS 3 Zrotation Yrotation Xrotation
					JOINT RightArm
					{
						OFFSET -0.096012 0.032551 -0.009143
						CHANNELS 3 Zrotation Yrotation Xrotation
						JOINT RightForeArm
						{
							OFFSET -0.253742 -0.013329 -0.021401
							CHANNELS 3 Zrotation Yrotation Xrotation
							JOINT RightHand
							{
								OFFSET -0.255298 0.007772 -0.005559
								CHANNELS 3 Zrotation Yrotation Xrotation
								End Site
								{
									OFFSET 0.000000 0.000000 0.000000
								}
							}
						}
					}
				}
			}
		}
	}
}
MOTION
Frames: 10
Frame Time: 0.050000
0.000000 0.950949 0.000000 -0.337658 -5.658299 -0.376706 1.182298 0.367260 4.198375 -1.819505 0.258739 -2.200190 -4.619434 -5.164282 9.038267 0.000000 0.000000 0.000000 0.739106 -0.327384 3.042120 -1.214228 0.011129 -2.093323 4.424959 4.342391 9.315009 0.000000 0.000000 0.000000 4.920139 -0.074936 0.585040 -3.251142 1.528296 -1.496395 -3.197190 6.095278 4.318265 8.290256 -3.419611 -16.602747 0.000000 0.000000 0.000000 -24.442360 -5.076380 -0.688983 -47.315256 -3.965021 -3.731866 -7.983535 -19.391009 1.950163 0.000000 0.000000 0.000000 23.604298 -1.715439 -2.124414 55.406739 4.739767 -3.472756 7.291765 22.641199 2.246016 0.000000 0.000000 0.000000 
-0.000048 0.950709 0.000526 -0.595531 -6.759998 0.040670 1.684544 0.388510 4.576131 -2.438786 0.343284 -3.351016 -4.205561 -4.449920 9.216795 0.000000 0.000000 0.000000 0.683401 -0.221938 2.004192 -0.784860 0.020121 -1.128623 4.851036 5.181168 9.189213 0.000000 0.000000 0.000000 5.637124 -0.021170 -0.114602 -3.490497 1.668150 -0.461628 -3.999403 7.123567 3.304847 9.673192 -3.918942 -17.866442 0.000000 0.000000 0.000000 -25.042157 -5.273795 -0.930860 -46.629185 -3.767141 -3.564465 -8.650418 -19.280705 2.017611 0.000000 0.000000 0.000000 23.295355 -2.533200 -2.407088 56.862932 4.252873 -3.691184 7.122676 23.082375 2.295184 0.000000 0.000000 0.000000 
-0.000055 0.950138 0.000825 -0.344236 -6.362416 0.118878 1.623312 0.369081 4.367479 -2.739418 0.368891 -3.222576 -4.390921 -4.771121 9.158078 0.000000 0.000000 0.000000 0.876814 -0.248006 2.159422 -1.554369 0.066230 -1.504172 4.576526 4.841473 8.890527 0.000000 0.000000 0.000000 5.552814 -0.012472 -0.237605 -3.176330 1.481428 -1.773563 -4.432353 7.100435 4.037736 9.098438 -3.794416 -16.716930 0.000000 0.000000 0.000000 -23.783099 -5.011684 -0.959115 -47.636128 -3.573728 -3.820015 -7.905809 -18.838942 1.849769 0.000000 0.000000 0.000000 23.929659 -2.019999 -2.063817 56.072516 3.827136 -3.956311 6.938732 22.712307 2.227301 0.000000 0.000000 0.000000 
-0.000070 0.949932 0.001051 -0.260167 -6.254909 0.043293 1.848221 0.405368 4.892442 -3.266068 0.425086 -4.004594 -4.570561 -4.954570 9.430067 0.000000 0.000000 0.000000 0.635719 -0.241303 2.222547 -1.270149 0.046694 -1.434555 4.510858 4.785290 8.787272 0.000000 0.000000 0.000000 5.467597 0.009968 -0.471009 -3.043923 1.440525 -0.990471 -4.654437 7.212346 3.294515 9.587473 -3.951260 -17.182105 0.000000 0.000000 0.000000 -23.990164 -4.544060 -1.385638 -47.578955 -3.951297 -3.567742 -8.181887 -18.821326 1.874172 0.000000 0.000000 0.000000 23.601153 -2.360450 -2.186510 56.040389 3.742230 -3.922765 7.754668 22.647254 2.375196 0.000000 0.000000 0.000000 
0.000043 0.949947 0.001117 -0.231926 -6.020164 -0.086247 1.721623 0.407995 4.877450 -3.059890 0.403008 -3.768919 -4.647461 -5.106566 9.347731 0.000000 0.000000 0.000000 0.564697 -0.247848 2.328088 -1.173099 0.044668 -1.324277 4.401561 4.610631 8.743513 0.000000 0.000000 0.000000 5.429746 0.005579 -0.401567 -3.060853 1.452723 -0.866020 -4.606055 7.339330 3.065443 9.364324 -3.888460 -16.639327 0.000000 0.000000 0.000000 -23.725330 -4.731610 -1.336085 -47.533555 -4.173338 -3.440858 -8.318703 -18.958411 1.899196 0.000000 0.000000 0.000000 23.461585 -2.315407 -2.081198 56.042941 3.465274 -4.038098 7.787103 22.314110 2.346356 0.000000 0.000000 0.000000 
0.000205 0.949838 0.001228 -0.245645 -5.660543 -0.232504 1.746295 0.421403 5.074898 -3.017108 0.397912 -3.879486 -4.823121 -5.385472 9.341012 0.000000 0.000000 0.000000 0.499197 -0.272293 2.612949 -0.991421 0.023394 -1.465838 4.262507 4.360476 8.745781 0.000000 0.000000 0.000000 5.464786 0.004145 -0.362195 -2.990141 1.412338 -1.214278 -4.575453 7.148592 3.524721 9.082693 -3.728888 -16.664968 0.000000 0.000000 0.000000 -24.274841 -4.705768 -1.395296 -47.126097 -4.419242 -3.338912 -8.336141 -19.604365 1.971737 0.000000 0.000000 0.000000 23.553139 -2.139476 -1.972667 55.968953 3.570244 -4.038080 7.598756 21.929973 2.267849 0.000000 0.000000 0.000000 
0.000414 0.949682 0.001303 -0.284040 -5.452743 -0.362095 1.700661 0.431707 5.186423 -2.842150 0.380703 -3.844970 -4.891084 -5.535319 9.236804 0.000000 0.000000 0.000000 0.552512 -0.284976 2.711015 -1.002030 0.031099 -1.333024 4.150044 4.204606 8.655832 0.000000 0.000000 0.000000 5.495675 -0.005357 -0.234493 -3.082702 1.456360 -1.249759 -4.623457 6.985130 3.609219 9.165330 -3.718156 -17.025402 0.000000 0.000000 0.000000 -24.264141 -4.713762 -1.372450 -47.163642 -4.642448 -3.268496 -8.333818 -20.147503 2.026907 0.000000 0.000000 0.000000 23.428093 -2.037790 -1.913340 56.310072 3.592347 -4.048223 7.551046 22.000303 2.267772 0.000000 0.000000 0.000000 
0.000552 0.949611 0.001451 -0.271702 -4.901210 -0.381063 1.653874 0.429115 5.192728 -2.688460 0.364552 -3.904559 -5.140474 -5.924407 9.240011 0.000000 0.000000 0.000000 0.649576 -0.300824 2.805093 -1.119067 0.041289 -1.351280 3.889541 3.760087 8.591452 0.000000 0.000000 0.000000 5.343449 0.002529 -0.331789 -2.985312 1.410864 -1.329171 -4.662564 6.605832 3.828314 8.985256 -3.689613 -16.678880 0.000000 0.000000 0.000000 -24.536238 -4.980076 -1.212622 -46.885231 -4.987241 -3.133383 -8.393505 -20.722302 2.101875 0.000000 0.000000 0.000000 23.379567 -2.062283 -1.945802 56.310646 3.663144 -4.027802 7.706928 22.160666 2.314346 0.000000 0.000000 0.000000 
0.000522 0.949628 0.001641 -0.314599 -4.912447 -0.462662 1.626737 0.431627 5.201813 -2.556225 0.350819 -3.730637 -5.105422 -5.906963 9.149790 0.000000 0.000000 0.000000 0.636101 -0.312205 2.930049 -1.014990 0.030645 -1.387071 3.913332 3.787500 8.627101 0.000000 0.000000 0.000000 5.281641 0.001789 -0.307930 -2.918116 1.378827 -1.347171 -4.670149 6.387743 3.855577 8.799076 -3.647271 -16.421588 0.000000 0.000000 0.000000 -24.597407 -4.939571 -1.167319 -46.859639 -5.275377 -3.046896 -8.516294 -20.919156 2.152508 0.000000 0.000000 0.000000 23.114431 -1.986770 -1.949139 56.372912 3.687484 -4.004146 7.797789 22.651549 2.383785 0.000000 0.000000 0.000000 
0.000286 0.949446 0.001957 -0.358505 -4.961976 -0.510878 1.594513 0.430210 5.160830 -2.400884 0.334034 -3.506895 -5.028872 -5.860027 8.975148 0.000000 0.000000 0.000000 0.671561 -0.315620 2.946741 -0.977179 0.032417 -1.281221 3.916727 3.837736 8.547762 0.000000 0.000000 0.000000 5.267674 0.011791 -0.408879 -2.947410 1.393437 -1.315635 -4.639874 6.174857 3.962329 8.750085 -3.673884 -16.260710 0.000000 0.000000 0.000000 -24.491564 -4.990390 -1.036462 -46.816728 -5.600687 -2.956590 -8.794790 -21.267495 2.250238 0.000000 0.000000 0.000000 23.004654 -1.865322 -1.940195 56.311745 3.730268 -3.974371 8.042079 22.970607 2.459532 0.000000 0.000000 0.000000 
